<?xml version="1.0" standalone="no"?><!DOCTYPE svg PUBLIC "-//W3C//DTD SVG 1.1//EN" "http://www.w3.org/Graphics/SVG/1.1/DTD/svg11.dtd"><svg t="1524048975156" class="icon" style="" viewBox="0 0 1024 1024" version="1.1" xmlns="http://www.w3.org/2000/svg" p-id="2767" xmlns:xlink="http://www.w3.org/1999/xlink" width="200" height="200"><defs><style type="text/css"></style></defs><path d="M972.8 494.933333h-51.2A409.6 409.6 0 0 0 529.066667 102.4V51.2a17.066667 17.066667 0 1 0-34.133334 0v51.2A409.6 409.6 0 0 0 102.4 494.933333H51.2a17.066667 17.066667 0 0 0 0 34.133334h51.2a409.6 409.6 0 0 0 392.533333 392.533333v51.2a17.066667 17.066667 0 1 0 34.133334 0v-51.2a409.6 409.6 0 0 0 392.533333-392.533333h51.2a17.066667 17.066667 0 0 0 0-34.133334z m-136.533333 34.133334h51.2a375.466667 375.466667 0 0 1-358.4 358.4v-51.2a17.066667 17.066667 0 1 0-34.133334 0v51.2A375.466667 375.466667 0 0 1 136.533333 529.066667h51.2a17.066667 17.066667 0 0 0 0-34.133334H136.533333A375.466667 375.466667 0 0 1 494.933333 136.533333v51.2a17.066667 17.066667 0 1 0 34.133334 0V136.533333a375.466667 375.466667 0 0 1 358.4 358.4h-51.2a17.066667 17.066667 0 1 0 0 34.133334z m-324.266667-85.333334a68.266667 68.266667 0 1 0 68.266667 68.266667 68.266667 68.266667 0 0 0-68.266667-68.266667z" p-id="2768"></path></svg>